HIERARCHY
ROOT Hips
{
	OFFSET 0.00000 0.00000 0.00000
	CHANNELS 6 Xposition Yposition Zposition Zrotation Yrotation Xrotation 
	JOINT LHipJoint
	{
		OFFSET 0 0 0
		CHANNELS 3 Zrotation Yrotation Xrotation
		JOINT LeftUpLeg
		{
			OFFSET 1.38615 -1.80049 0.80104
			CHANNELS 3 Zrotation Yrotation Xrotation
			JOINT LeftLeg
			{
				OFFSET 2.50172 -6.87341 0.00000
				CHANNELS 3 Zrotation Yrotation Xrotation
				JOINT LeftFoot
				{
					OFFSET 2.67523 -7.35014 0.00000
					CHANNELS 3 Zrotation Yrotation Xrotation
					JOINT LeftToeBase
					{
						OFFSET 0.17446 -0.47932 2.13155
						CHANNELS 3 Zrotation Yrotation Xrotation
						End Site
						{
							OFFSET 0.00000 -0.00000 1.10023
						}
					}
				}
			}
		}
	}
	JOINT RHipJoint
	{
		OFFSET 0 0 0
		CHANNELS 3 Zrotation Yrotation Xrotation
		JOINT RightUpLeg
		{
			OFFSET -1.18047 -1.80049 0.80104
			CHANNELS 3 Zrotation Yrotation Xrotation
			JOINT RightLeg
			{
				OFFSET -2.59789 -7.13765 0.00000
				CHANNELS 3 Zrotation Yrotation Xrotation
				JOINT RightFoot
				{
					OFFSET -2.62125 -7.20183 0.00000
					CHANNELS 3 Zrotation Yrotation Xrotation
					JOINT RightToeBase
					{
						OFFSET -0.31287 -0.85960 2.07814
						CHANNELS 3 Zrotation Yrotation Xrotation
						End Site
						{
							OFFSET -0.00000 -0.00000 1.11766
						}
					}
				}
			}
		}
	}
	JOINT LowerBack
	{
		OFFSET 0 0 0
		CHANNELS 3 Zrotation Yrotation Xrotation
		JOINT Spine
		{
			OFFSET -0.01587 2.16157 -0.12309
			CHANNELS 3 Zrotation Yrotation Xrotation
			JOINT Spine1
			{
				OFFSET 0.04727 2.16674 -0.03569
				CHANNELS 3 Zrotation Yrotation Xrotation
				JOINT Neck
				{
					OFFSET 0 0 0
					CHANNELS 3 Zrotation Yrotation Xrotation
					JOINT Neck1
					{
						OFFSET -0.08586 1.60335 0.32783
						CHANNELS 3 Zrotation Yrotation Xrotation
						JOINT Head
						{
							OFFSET 0.07583 1.65857 -0.31618
							CHANNELS 3 Zrotation Yrotation Xrotation
							End Site
							{
								OFFSET 0.03386 1.69434 -0.14584
							}
						}
					}
				}
				JOINT LeftShoulder
				{
					OFFSET 0 0 0
					CHANNELS 3 Zrotation Yrotation Xrotation
					JOINT LeftArm
					{
						OFFSET 3.17393 1.01901 -0.52897
						CHANNELS 3 Zrotation Yrotation Xrotation
						JOINT LeftForeArm
						{
							OFFSET 5.25287 -0.00000 -0.00000
							CHANNELS 3 Zrotation Yrotation Xrotation
							JOINT LeftHand
							{
								OFFSET 3.51014 -0.00000 0.00000
								CHANNELS 3 Zrotation Yrotation Xrotation
								JOINT LeftFingerBase
								{
									OFFSET 0 0 0
									CHANNELS 3 Zrotation Yrotation Xrotation
									JOINT LeftHandIndex1
									{
										OFFSET 0.70618 -0.00000 -0.00000
										CHANNELS 3 Zrotation Yrotation Xrotation
										End Site
										{
											OFFSET 0.56934 -0.00000 -0.00000
										}
									}
								}
								JOINT LThumb
								{
									OFFSET 0 0 0
									CHANNELS 3 Zrotation Yrotation Xrotation
									End Site
									{
										OFFSET 0.57803 -0.00000 0.57803
									}
								}
							}
						}
					}
				}
				JOINT RightShoulder
				{
					OFFSET 0 0 0
					CHANNELS 3 Zrotation Yrotation Xrotation
					JOINT RightArm
					{
						OFFSET -2.99471 1.26495 -0.61125
						CHANNELS 3 Zrotation Yrotation Xrotation
						JOINT RightForeArm
						{
							OFFSET -5.28721 -0.00000 -0.00000
							CHANNELS 3 Zrotation Yrotation Xrotation
							JOINT RightHand
							{
								OFFSET -3.50544 -0.00000 0.00000
								CHANNELS 3 Zrotation Yrotation Xrotation
								JOINT RightFingerBase
								{
									OFFSET 0 0 0
									CHANNELS 3 Zrotation Yrotation Xrotation
									JOINT RightHandIndex1
									{
										OFFSET -0.88500 -0.00000 -0.00000
										CHANNELS 3 Zrotation Yrotation Xrotation
										End Site
										{
											OFFSET -0.71351 -0.00000 -0.00000
										}
									}
								}
								JOINT RThumb
								{
									OFFSET 0 0 0
									CHANNELS 3 Zrotation Yrotation Xrotation
									End Site
									{
										OFFSET -0.72440 -0.00000 0.72440
									}
								}
							}
						}
					}
				}
			}
		}
	}
}
MOTION
Frames: 15
Frame Time: 0.133333
0.00 0.00 0.00 0 0 0 0 0 0 -21 0 0 0 0 0 0 0 0 0 0 0 0 0 0 21 0 0 0 0 0 0 0 0 0 0 0 0 0 0 0 0 0 0 0 0 0 0 -16 0 0 21 0 0 11 0 0 0 -8 0 0 0 0 0 0 0 0 0 0 0 0 0 0 0 0 0 0 0 0 8 0 0 0 0 0 0 0 0 0 0 0 0 0 0 0 0 0
0.00 0.00 0.00 6.6894 -79.5396 -3.8222 0.0000 0.0000 0.0000 -0.2791 -2.5790 -7.0123 1.8728 8.5960 24.5395 0.4403 -3.9758 14.6277 0.5719 -4.8431 -13.4616 0.0000 0.0000 0.0000 0.8288 -0.7043 -10.5598 -3.5745 -11.5716 34.2328 0.2396 -12.4007 4.9650 -0.0065 0.5189 -1.4258 -1.1951 0.5315 1.6124 2.2565 0.7104 -3.6226 2.9676 0.4236 -4.6896 -3.6764 6.3158 -23.7073 4.8357 8.8307 26.6196 3.9394 4.1610 12.3119 0.0000 0.0000 0.0000 14.7411 -10.8089 -50.7792 26.2779 -37.4818 -9.0562 -0.0000 0.0000 -10.0627 6.1013 46.1315 4.4066 -7.1250 0.0000 -0.0000 -50.4809 70.3347 -33.1882 0.0000 0.0000 0.0000 -11.1277 6.7093 -50.6737 -28.1620 39.2649 -10.2260 0.0000 -0.0000 -23.9412 -21.0303 4.0939 -1.5723 7.1250 -0.0000 -0.0000 4.2308 -25.5926 1.9933
0.00 0.00 0.00 6.0907 -79.0353 -4.4487 0.0000 0.0000 0.0000 5.6749 -6.6545 -7.2353 3.1284 10.9001 31.9437 -0.4584 -12.2417 1.4303 4.1297 -12.3310 -36.9132 0.0000 0.0000 0.0000 -2.9326 4.1712 -9.0643 -5.7031 -14.1343 43.7781 -0.0001 -3.6843 -5.2628 -3.2333 11.0635 -32.4942 -1.7420 1.0088 3.9478 1.5713 1.2836 -4.2209 2.4961 0.7446 -6.6917 -2.7397 5.0924 -20.3570 5.5238 6.3828 25.8587 3.4803 3.2652 11.5063 -0.0000 0.0000 0.0000 34.6354 -17.5429 -57.6274 42.3956 -49.4269 -20.2405 -0.0000 0.0000 -4.2485 8.8854 44.1290 6.2123 -7.1250 0.0000 -0.0000 -43.5425 69.9820 -27.7199 -0.0000 0.0000 0.0000 -28.6023 11.8077 -52.5944 -47.2959 51.8449 -24.0309 0.0000 -0.0000 -25.4108 -20.4152 6.7278 -2.4967 7.1250 -0.0000 -0.0000 4.6610 -22.8123 2.4973
0.00 0.00 0.00 2.4771 -78.6714 -2.4318 0.0000 0.0000 0.0000 9.6447 -4.5580 -12.1854 5.6362 14.0662 43.5034 -0.0418 -18.8560 -12.8932 3.4031 -11.3206 -33.3688 0.0000 0.0000 0.0000 -4.2037 2.7624 -10.9115 -8.3483 -16.3695 53.8077 -1.4680 -0.0389 -22.9403 -3.9327 12.0703 -35.9811 -1.0569 1.3704 7.9335 1.0008 1.7780 -4.1162 1.3810 0.9532 -8.8872 -3.0449 4.4620 -21.7675 8.8831 4.4977 27.4663 4.6590 2.8177 12.4091 0.0000 0.0000 0.0000 43.4348 -19.2840 -60.1643 57.7263 -55.6730 -32.4562 -0.0000 -0.0000 3.9081 13.0828 43.8755 9.1499 -7.1250 0.0000 -0.0000 -38.7874 71.2212 -25.3852 0.0000 0.0000 0.0000 -34.7536 12.0454 -51.7817 -64.5327 57.4015 -38.1371 0.0000 -0.0000 -20.7354 -22.8639 11.8051 -4.9305 7.1250 -0.0000 -0.0000 3.0096 -17.2109 1.9871
0.00 0.00 0.00 4.6596 -78.4907 -7.6655 0.0000 0.0000 0.0000 11.7832 -2.9550 -15.6125 8.2215 16.2798 53.3568 0.7175 -22.9951 -20.9727 3.6362 -11.6599 -34.5391 0.0000 0.0000 0.0000 -6.5577 2.2567 -12.7914 -11.2083 -18.0355 63.4562 -2.7452 1.7799 -30.9169 -3.7961 11.8840 -35.3228 -3.0928 1.2662 13.4379 1.9139 1.3493 -2.6507 3.5301 0.9086 -10.5818 -5.4352 4.2335 -23.2795 10.2626 4.7267 27.2296 5.6848 2.8906 12.4686 0.0000 -0.0000 0.0000 44.8317 -17.1465 -59.6837 82.7031 -59.7978 -53.6850 -0.0000 -0.0000 11.9674 26.7990 34.6165 16.0106 -7.1250 0.0000 -0.0000 -8.5658 67.5129 -4.6520 0.0000 -0.0000 0.0000 -41.0558 12.1786 -53.5249 -85.2020 59.9128 -55.8460 0.0000 -0.0000 -12.4247 -32.8969 29.4167 -17.6254 7.1250 -0.0000 -0.0000 -1.1437 3.8971 -1.2191
0.00 0.00 0.00 12.1068 -82.1399 -8.5501 0.0000 0.0000 0.0000 -17.0942 -2.1063 -20.9249 5.1300 13.5287 41.3814 -0.3836 -11.2599 7.1757 0.8712 -5.9512 -16.6430 0.0000 0.0000 0.0000 16.8819 -1.6791 -23.8532 -6.9840 -15.3184 48.8139 -0.0705 1.5067 -4.7175 -1.5946 7.9650 -22.6077 -2.9100 0.8209 4.6242 1.4550 0.9719 -0.8504 3.0637 0.5581 -3.5473 -3.3233 5.9986 -22.7999 4.2130 8.3714 23.1782 3.3735 4.0216 10.9004 -0.0000 0.0000 0.0000 -63.0840 -2.9906 -21.8946 26.1698 -37.3759 -8.9905 -0.0000 0.0000 -21.4031 4.8333 43.2417 3.3154 -7.1250 0.0000 -0.0000 -45.7066 68.0672 -27.4466 -0.0000 0.0000 0.0000 53.2097 -4.9315 -27.7071 -32.0121 42.5568 -12.7490 0.0000 -0.0000 -30.6765 -25.2847 7.9219 -3.7249 7.1250 -0.0000 -0.0000 1.1270 -21.2316 0.6425
0.00 0.00 0.00 14.7799 -83.4851 -11.5222 0.0000 0.0000 0.0000 -20.1171 -3.8968 -22.0234 7.1758 15.4782 49.5362 -0.2205 -10.6568 -3.2467 2.0747 -9.0200 -25.8578 0.0000 0.0000 0.0000 21.0633 5.9042 -23.6450 -8.7699 -16.6573 55.2908 -0.4606 0.1287 -12.7784 -0.6651 5.2157 -14.5249 -4.6438 0.0390 5.2374 1.8405 -0.1822 0.0855 4.5347 -0.0186 -2.8321 -3.6891 6.9172 -21.0376 4.3576 9.6635 20.4302 3.4454 4.6945 9.4942 0.0000 0.0000 0.0000 -88.1792 0.9232 -11.2731 20.1683 -30.8446 -5.6174 -0.0000 0.0000 -15.8446 13.5579 49.4485 10.3831 -7.1250 0.0000 -0.0000 -53.2071 74.8894 -39.9103 0.0000 0.0000 0.0000 77.5371 -1.7166 -17.6892 -25.2393 36.4476 -8.4316 0.0000 -0.0000 -34.8112 -26.4477 1.9451 -0.9673 7.1250 -0.0000 -0.0000 0.1032 -27.8074 0.0432
0.00 0.00 0.00 5.4189 -84.4838 -1.5680 0.0000 0.0000 0.0000 -18.0193 -5.2187 -25.0602 9.5238 17.1332 57.8845 1.0978 -12.8824 -19.5066 1.1480 -6.8034 -19.1343 0.0000 0.0000 0.0000 22.6114 8.8691 -25.1672 -10.8703 -17.8710 62.3596 -2.7119 3.4530 -30.3408 -0.1648 2.6155 -7.2100 -3.8819 0.2401 5.8659 1.7471 0.1060 -0.0474 3.9860 0.1285 -3.3530 -3.7136 7.3525 -22.7545 6.5832 9.7717 20.9959 4.3433 5.0125 9.8587 0.0000 0.0000 0.0000 -96.1458 1.3457 -1.1994 17.3283 -27.2885 -4.2367 -0.0000 0.0000 -12.6792 9.0014 51.9502 7.1105 -7.1250 0.0000 -0.0000 -64.5427 74.2494 -49.0379 0.0000 0.0000 0.0000 87.8564 -2.6083 -8.1376 -23.0438 34.1367 -7.1628 0.0000 -0.0000 -37.0020 -23.1043 -2.3965 1.0220 7.1250 -0.0000 -0.0000 2.8215 -32.5763 0.8593
0.00 0.00 0.00 11.1995 -82.1994 -6.9053 0.0000 0.0000 0.0000 -1.4102 -4.7874 -7.5756 1.6385 8.0685 22.9224 0.1571 0.3717 7.3624 0.8239 -5.7912 -16.1798 0.0000 0.0000 0.0000 -1.1726 -0.4570 -10.6646 -3.7763 -11.8567 35.2268 0.1985 -8.7140 0.8007 -0.3758 3.9371 -10.8998 1.1297 1.8504 2.1867 1.8768 2.5653 -3.9208 1.1394 1.2467 -5.3184 -1.6830 4.8357 -19.2282 3.8389 6.1152 25.5837 2.5978 3.0211 11.3066 0.0000 -0.0000 0.0000 14.5891 -11.1623 -45.4392 74.3052 -59.0485 -46.4513 -0.0000 0.0000 -20.3634 -15.8253 53.3799 -12.8166 -7.1250 0.0000 -0.0000 -82.3105 66.1491 -55.6659 0.0000 -0.0000 0.0000 -15.7445 2.5763 -51.9382 -39.2418 47.6142 -17.8772 0.0000 -0.0000 -31.8488 -21.7260 1.7270 -0.6880 7.1250 -0.0000 -0.0000 3.7532 -28.1140 1.5448
0.00 0.00 0.00 25.6102 -83.3103 -21.3284 0.0000 0.0000 0.0000 1.1330 -8.7871 -3.5732 1.6066 7.9934 22.6941 -0.1622 -10.7344 -4.6499 5.4957 -13.9212 -42.9227 0.0000 0.0000 0.0000 -5.9609 12.8942 -4.8245 -3.9217 -12.0555 35.9285 0.0024 4.7427 -3.2376 -3.5468 11.5316 -34.0946 0.2452 0.5829 2.8264 3.1808 0.8850 -4.0270 3.1074 0.4745 -5.8137 -6.0578 6.0861 -20.0664 3.9228 9.3703 26.9168 3.8817 4.0128 11.6104 -0.0000 -0.0000 0.0000 35.2404 -7.7943 -51.7527 93.6312 -59.9501 -63.1441 -0.0000 -0.0000 8.6640 23.1460 51.2592 18.4400 -7.1250 0.0000 -0.0000 -53.9650 79.6143 -45.0400 -0.0000 -0.0000 0.0000 -39.0779 13.8470 -57.9426 -72.0506 58.7469 -44.5208 0.0000 -0.0000 -21.6954 -29.6727 16.1107 -8.9843 7.1250 -0.0000 -0.0000 -1.2782 -11.5950 -0.9955
0.00 0.00 0.00 32.6589 -82.3808 -29.4093 0.0000 0.0000 0.0000 1.3919 -6.1289 -8.1748 3.0116 10.7138 31.3205 0.7562 -12.4746 -16.6467 4.3173 -12.5711 -37.7834 0.0000 0.0000 0.0000 -7.2729 13.7514 -5.0193 -5.5249 -13.9516 43.0438 -1.2168 5.5560 -19.7535 -4.5024 12.8006 -38.6265 0.0644 3.2881 6.7407 -0.5971 4.3435 -4.6416 -1.2755 2.0805 -8.6290 0.9890 3.9544 -19.1844 3.1148 4.1905 25.5453 1.6064 2.3147 11.4535 -0.0000 -0.0000 0.0000 49.4818 -14.8529 -62.9106 102.9281 -59.3589 -71.1720 -0.0000 -0.0000 20.4632 30.1650 48.0517 23.3771 -7.1250 0.0000 -0.0000 -31.4492 80.9022 -26.3789 -0.0000 -0.0000 0.0000 -39.9671 6.1908 -52.5249 -87.8488 59.9825 -58.1371 0.0000 -0.0000 -10.0608 -39.8489 30.1346 -22.7339 7.1250 -0.0000 -0.0000 -4.8706 6.9937 -5.4460
0.00 0.00 0.00 20.8539 -80.8069 -20.1627 0.0000 0.0000 0.0000 4.7785 -9.0401 -7.6305 3.5774 11.5758 34.2474 1.4721 -10.8217 -21.8946 4.0096 -12.1731 -36.3473 0.0000 0.0000 0.0000 -3.1550 10.8481 -4.3691 -6.9091 -15.2548 48.5296 -3.3028 1.8928 -33.9811 -3.3446 11.2330 -33.0699 -1.8883 2.2362 10.0201 -0.0058 2.7277 -3.7287 0.5570 1.4287 -9.7149 -3.2377 3.5773 -18.5289 5.7158 4.3545 23.2253 3.1751 2.3554 10.2656 0.0000 0.0000 0.0000 43.7534 -12.7219 -64.3305 110.5385 -58.3445 -77.6880 -0.0000 -0.0000 18.8015 38.3880 37.8665 25.9337 -7.1250 0.0000 -0.0000 7.2153 74.6480 5.0538 0.0000 0.0000 0.0000 -36.7027 5.1895 -56.7780 -73.0756 58.8895 -45.3977 0.0000 -0.0000 -15.5476 -43.3068 27.2976 -23.3777 7.1250 -0.0000 -0.0000 -7.5105 5.0946 -8.2160
0.00 0.00 0.00 -8.1214 -81.0594 6.2015 0.0000 0.0000 0.0000 11.1853 -14.1670 -3.8843 4.4440 12.7289 38.3621 0.1702 -18.4417 -14.4519 3.7630 -11.8382 -35.1619 0.0000 0.0000 0.0000 -1.2248 7.7517 -4.2682 -6.8674 -15.2192 48.3711 -2.2536 6.8226 -27.0811 -4.4017 12.6766 -38.1696 0.0849 3.9585 6.8302 -0.4203 5.2691 -3.5226 -1.1803 2.5615 -7.4754 2.9539 3.1801 -19.7927 5.1050 1.8472 25.0517 1.6576 1.7065 11.4508 0.0000 0.0000 0.0000 55.6423 -19.0246 -65.9111 81.1236 -59.7002 -52.3205 -0.0000 -0.0000 7.0345 30.5181 37.8356 19.8790 -7.1250 0.0000 -0.0000 -6.4405 71.9260 -4.1296 0.0000 0.0000 0.0000 -46.4120 8.0906 -51.5331 -75.3561 59.1740 -47.3532 0.0000 -0.0000 -11.2141 -27.8885 19.4467 -9.9925 7.1250 -0.0000 -0.0000 0.2712 -8.2049 0.2298
0.00 0.00 0.00 21.9080 -80.3765 -21.6181 0.0000 0.0000 0.0000 -21.3998 0.7953 -15.6550 6.7529 15.1202 47.9335 2.3555 -14.9881 -28.0171 0.0745 -1.7607 -4.8448 0.0000 0.0000 0.0000 19.6522 1.6768 -18.1451 -9.0698 -16.8525 56.3313 -4.3126 3.6665 -38.6238 -0.0201 0.9159 -2.5174 -2.8647 1.0304 3.8873 1.1124 1.2620 1.4114 2.6921 0.6187 -0.8161 -2.4237 6.3977 -23.9048 1.9443 9.2603 21.8132 2.5519 4.2396 10.7406 0.0000 -0.0000 0.0000 -99.5318 -1.7930 7.1170 11.6300 -19.2475 -1.9786 -0.0000 -0.0000 21.7901 -5.4680 46.0215 -3.9405 -7.1250 0.0000 -0.0000 -60.0480 66.5232 -36.2828 0.0000 -0.0000 0.0000 96.5898 -1.7482 8.0093 -15.2998 24.5622 -3.3496 0.0000 -0.0000 -3.2659 -13.3016 5.1763 -1.2219 7.1250 -0.0000 -0.0000 9.9691 -24.6610 4.9724
0.00 0.00 0.00 19.2079 -76.5575 -12.0500 0.0000 0.0000 0.0000 -22.8728 -2.7290 -12.8559 3.1792 10.9796 32.2113 1.2217 -9.9017 -19.9209 0.3109 -3.5848 -9.9114 0.0000 0.0000 0.0000 20.2806 3.4006 -15.8134 -5.1071 -13.5034 41.2832 -3.2969 -0.1553 -34.5145 -0.1684 -2.6436 7.2880 -4.4319 -0.1188 -5.0001 1.2756 -0.0108 -2.4868 3.8044 0.0213 0.2388 -3.7592 6.1569 -21.5338 3.2626 8.9819 25.4618 3.2322 4.0445 11.5243 -0.0000 0.0000 0.0000 -85.2945 4.7719 25.3635 19.4418 -29.9640 -5.2497 -0.0000 -0.0000 11.8448 -3.6394 41.9666 -2.4355 -7.1250 0.0000 -0.0000 -51.3297 64.6796 -27.7325 -0.0000 0.0000 0.0000 88.1123 -9.3104 22.1527 -19.0940 29.5353 -5.0771 0.0000 -0.0000 -9.3753 -16.3116 9.5377 -2.7761 7.1250 -0.0000 -0.0000 7.6045 -20.0922 4.5693
